<?xml version="1.0" encoding="utf-8"?>
<!-- Generator: Adobe Illustrator 23.0.1, SVG Export Plug-In . SVG Version: 6.00 Build 0)  -->
<svg version="1.1" id="Calque_1" xmlns="http://www.w3.org/2000/svg" xmlns:xlink="http://www.w3.org/1999/xlink" x="0px" y="0px"
	 viewBox="0 0 432 432" style="enable-background:new 0 0 300 300;" xml:space="preserve">
<style type="text/css">
	.st0{fill:#AB8056;}
	.st1{fill:#1A1A1A;}
	.st2{fill:#736358;}
	.st3{fill:#C48C10;}
	.st4{fill:#544841;}
	.st5{fill:#E884A9;}
	.st6{fill:#B3B3B2;}
	.st7{fill:#C0282E;}
	.st8{fill:#333333;}
	.st9{fill:#19854B;}
	.st10{fill:#EBC776;}
	.st11{fill:#D5A953;}
	.st12{fill:#E1DFDB;}
	.st13{fill:#D2B155;}
	.st14{fill:#E8973E;}
	.st15{fill:#3A6C51;}
	.st16{fill:#036838;}
	.st17{fill:#4E695A;}
	.st18{fill:#8B3F43;}
	.st19{fill:#476C58;}
	.st20{fill:#A24F4D;}
	.st21{fill:#C5ADA4;}
	.st22{fill:#CCCBCB;}
	.st23{fill:#B79FA7;}
	.st24{fill:#815969;}
	.st25{fill:#A7A7A6;}
	.st26{fill:#D0AD76;}
	.st27{fill:#E8B953;}
	.st28{fill:#C59B6C;}
	.st29{fill:#F29222;}
	.st30{fill:#E6E5E5;}
	.st31{fill:#D2B79A;}
	.st32{fill:#BE8B65;}
	.st33{fill:#81A993;}
	.st34{fill:#9C7684;}
	.st35{fill:#824D61;}
	.st36{fill:#B14044;}
	.st37{fill:#8F5168;}
	.st38{fill:#D88EA9;}
	.st39{fill:#805C5C;}
	.st40{fill:#CCA3A3;}
	.st41{fill:#FFFFFF;}
	.st42{fill:#6A9DC3;}
	.st43{fill:#F49F5A;}
	.st44{fill:#6A3E4D;}
	.st45{fill:#F8AF3C;}
	.st46{fill:#EA5877;}
	.st47{fill:#F1D86A;}
	.st48{fill:#5EBEBD;}
	.st49{fill:#BDCD55;}
	.st50{fill:#A5A4A5;}
	.st51{fill:#B09FA0;}
	.st52{fill:#60AE9F;}
	.st53{fill:#BB8071;}
	.st54{fill:#9E7BB5;}
	.st55{fill:#A57C52;}
	.st56{fill:#E8973E;stroke:#E8973E;stroke-miterlimit:10;}
	.st57{fill:#AD375A;}
	.st58{fill:#7E8C66;}
	.st59{fill:#7C887F;}
	.st60{fill:#472912;}
	.st61{fill:#2B1A0F;}
	.st62{fill:#E52E31;}
	.st63{fill:#CA656A;}
	.st64{fill:#4E4D4D;}
	.st65{fill:#3A6D86;}
	.st66{fill:#1D1D1B;}
	.st67{fill:#0D0D0D;}
	.st68{fill:#EA94AA;}
	.st69{fill:#8DA198;}
	.st70{fill:#C896A9;}
	.st71{fill:#F5C645;}
	.st72{fill:#EFB443;}
	.st73{fill:#E68A44;}
	.st74{fill:#622C6A;}
	.st75{fill:#279352;}
	.st76{fill:#479754;}
	.st77{fill:#8764A2;}
	.st78{fill:#B59471;}
	.st79{fill:#B8D38E;}
	.st80{fill:#5CAF62;}
	.st81{fill:#F5DB56;}
	.st82{fill:#9C9E9F;}
	.st83{fill:#207242;}
	.st84{fill:#404041;}
	.st85{fill:#C1C2C1;}
	.st86{fill:#CBCACA;}
	.st87{fill:#904290;}
	.st88{fill:#129E56;}
	.st89{fill:#F1CC45;}
	.st90{fill:#5C3289;}
	.st91{fill:#2AA658;}
	.st92{fill:#C49A6C;}
	.st93{fill:#F1F1F1;}
	.st94{fill:#754D27;}
	.st95{fill:#8B6239;}
	.st96{fill:#B3B2B2;}
	.st97{fill:#979796;}
	.st98{fill:#C38045;}
	.st99{fill:#0E1014;}
	.st100{fill:#D8AA58;}
	.st101{fill:#0B0C0E;}
	.st102{fill:#6A4694;}
	.st103{fill:#3EA958;}
	.st104{fill:#FAD96F;}
	.st105{fill:#C58489;}
	.st106{fill:#C98C94;}
	.st107{fill:#2C2E30;}
	.st108{fill:#DDAAB1;}
	.st109{fill:#5A9AB5;}
	.st110{fill:#989898;}
	.st111{fill:#469771;}
	.st112{fill:#B59825;}
	.st113{fill:#E96C99;}
	.st114{fill:#BFA490;}
	.st115{fill:#808080;}
	.st116{fill:#80C9CB;}
	.st117{fill:#C9CE66;}
	.st118{fill:#72A6CB;}
	.st119{fill:#ED799D;}
	.st120{fill:#F4AB5E;}
	.st121{fill:#F2902A;}
	.st122{fill:#7FBB48;}
	.st123{fill:#ED7AA9;}
	.st124{fill:#53A2DA;}
	.st125{fill:#07473E;}
	.st126{fill:#960527;}
	.st127{fill:#110A09;}
	.st128{fill:#F15A24;}
	.st129{fill:#9B0808;}
	.st130{fill:#EFEFEF;}
	.st131{fill:#87C1BF;}
	.st132{fill:#E58645;}
	.st133{fill:#4F3928;}
	.st134{fill:#666666;}
	.st135{fill:#BDCCD4;}
	.st136{fill:#A0C1C0;}
</style>
<g>
	<g>
		<g>
			<path class="st33" d="M290.17,312.17c-3.15,0.43-6.23,0.84-9.51,1.29c0.08-0.56,0.12-0.97,0.2-1.37
				c0.94-4.64,1.9-9.28,2.81-13.92c0.6-3.04,0.85-6.09,0.2-9.17c-0.45-2.13-1.26-4.07-2.59-5.78c-4.73-6.08-9.62-12.03-15.5-17.08
				c-1.62-1.39-3.5-2.13-5.64-2.13c-1.62,0-3.24,0.04-4.86,0.09c-4.89,0.15-9.79,0.27-14.68,0.48c-2.88,0.13-5.76,0.35-8.56,1.1
				c-2.33,0.63-4.33,1.8-5.42,4.06c-2.9,5.96-5.83,11.92-7.63,18.34c-0.5,1.78-0.83,3.62-1.08,5.45c-0.36,2.61,0.14,5.1,1.27,7.49
				c1.96,4.16,4.3,8.08,7.05,11.77c0.61,0.81,1.2,1.64,1.95,2.66c-0.78,0-1.34,0.03-1.91,0c-3.59-0.19-7.17-0.41-10.76-0.58
				c-0.71-0.03-1.07-0.31-1.27-0.96c-0.32-1.02-0.69-2.01-1.04-3.02c-0.18-0.52-0.37-1.04-0.54-1.57c-1.28-3.92-3.62-6.93-7.31-8.92
				c-2.29-1.23-4.45-2.7-6.67-4.07c-1.29-0.8-2.67-1.16-4.18-0.85c-4.1,0.84-8.2,1.63-12.29,2.52c-2.35,0.51-4.67,1.17-7,1.76
				c-0.11,0.03-0.23,0-0.41,0c-0.49-1.16-0.72-2.4-0.74-3.65c-0.04-2.21-0.04-4.42,0.09-6.63c0.12-2.16,0.41-4.32,0.63-6.48
				c0.04-0.35,0.11-0.69,0.17-1.12c1.12-0.1,2.21-0.21,3.3-0.3c3.15-0.25,6.3-0.44,9.44-0.75c2.35-0.23,4.68-0.65,6.95-1.39
				c2.48-0.81,4.43-2.27,5.69-4.54c1.48-2.65,2.92-5.33,4.28-8.05c1.68-3.35,3.28-6.74,4.86-10.14c1.03-2.22,1.97-4.48,2.95-6.72
				c1.17-2.67,1.13-5.31,0.07-8.04c-1.98-5.11-3.82-10.28-5.72-15.43c-0.07-0.18-0.13-0.37-0.24-0.67c2.23-1.85,4.6-3.53,7.14-5.23
				c0.25,0.4,0.48,0.75,0.69,1.11c2.84,4.95,6.15,9.56,9.84,13.91c0.41,0.48,0.85,0.94,1.27,1.41c3.75,4.2,8.54,6.03,14.06,6.37
				c5.38,0.33,10.73-0.03,16.08-0.47c1.69-0.14,3.38-0.31,5.06-0.52c2.2-0.26,4.13-1.15,5.55-2.87c1.73-2.1,3.52-4.18,4.96-6.48
				c2.09-3.34,3.92-6.85,5.79-10.32c1.27-2.36,2.43-4.78,3.7-7.31c4.29,2.25,8.15,5,11.89,8.15c-0.25,0.37-0.48,0.72-0.73,1.05
				c-2.52,3.44-5.06,6.87-7.56,10.32c-0.72,0.99-1.38,2.03-1.98,3.09c-1.3,2.29-1.52,4.71-0.69,7.2c0.35,1.04,0.75,2.09,1.28,3.05
				c3.19,5.77,6.43,11.51,9.65,17.26c0.23,0.41,0.47,0.82,0.73,1.22c1.21,1.84,2.79,3.24,4.93,3.86c3.67,1.06,7.34,2.15,11.05,3.08
				c3.94,0.99,7.92,1.84,11.89,2.68c1.38,0.29,2.81,0.4,4.33,0.6c0.67,2.91,1.05,5.85,1.01,8.97c-1.35-0.27-2.6-0.55-3.87-0.77
				c-3.19-0.55-6.38-1.07-9.57-1.62c-2.72-0.47-5.27,0.02-7.65,1.37c-1.75,1-3.45,2.07-5.16,3.13c-1.68,1.04-3.32,2.13-4.99,3.18
				c-1.53,0.97-2.55,2.32-3.14,4.02c-0.66,1.92-0.98,3.91-1.14,5.91c-0.28,3.38-0.47,6.77-0.7,10.16
				C290.21,311.57,290.19,311.77,290.17,312.17z"/>
			<g>
				<path class="st19" d="M277.68,313.76c-15.38,1.8-30.73,1.75-45.93,1.92c-1.21-1.67-2.28-3.18-3.38-4.66
					c-2.29-3.08-4.2-6.39-6.03-9.77c-1.81-3.35-2.13-6.77-1.23-10.42c0.87-3.54,2.09-6.95,3.55-10.28c1.27-2.89,2.64-5.74,3.91-8.63
					c0.85-1.94,2.24-3.12,4.31-3.47c1.94-0.33,3.89-0.73,5.85-0.84c4.97-0.27,9.94-0.4,14.91-0.58c1.85-0.07,3.71-0.07,5.56-0.17
					c2.09-0.11,3.85,0.58,5.41,1.95c2.96,2.58,5.67,5.39,8.2,8.37c1.81,2.14,3.5,4.39,5.36,6.49c3.02,3.41,3.77,7.43,3.1,11.73
					c-0.63,4.09-1.54,8.14-2.34,12.21C278.54,309.61,278.12,311.62,277.68,313.76z"/>
				<path class="st19" d="M216.02,219.14c0.3-0.2,0.46-0.32,0.63-0.42c8-4.66,16.36-8.37,25.6-9.82c5.62-0.88,11.23-0.95,16.87-0.21
					c6.11,0.79,11.98,2.4,17.63,4.83c0.43,0.19,0.85,0.39,1.28,0.59c-0.01,0.17,0.01,0.3-0.03,0.39c-2.78,5.5-5.34,11.11-8.66,16.31
					c-1.35,2.12-2.95,4.09-4.46,6.12c-1.36,1.83-3.22,2.72-5.47,2.88c-3.66,0.27-7.32,0.58-10.98,0.82
					c-3.31,0.22-6.63,0.21-9.94-0.1c-4.16-0.39-7.78-1.91-10.67-5.02c-3.57-3.83-6.64-8.03-9.44-12.44
					C217.57,221.82,216.84,220.51,216.02,219.14z"/>
				<path class="st19" d="M294.73,225.43c14.3,13.62,24.82,29.38,30.03,48.64c-0.81-0.08-1.51-0.09-2.19-0.23
					c-3.59-0.75-7.19-1.46-10.75-2.32c-3.79-0.92-7.55-1.98-11.32-2.99c-0.53-0.14-1.05-0.35-1.57-0.53
					c-1.18-0.42-2.19-1.06-2.87-2.16c-1.21-1.94-2.54-3.81-3.66-5.8c-2.4-4.26-4.72-8.57-7.03-12.89c-0.5-0.93-0.88-1.94-1.22-2.95
					c-0.53-1.62-0.35-3.21,0.47-4.69c0.48-0.86,0.99-1.71,1.57-2.5c2.62-3.61,5.26-7.2,7.9-10.8
					C294.25,225.99,294.43,225.79,294.73,225.43z"/>
				<path class="st19" d="M175.33,278.91c1.6-8.9,4.61-17.23,8.75-25.18c5.12-9.83,11.76-18.46,20.11-25.98
					c0.19,0.39,0.34,0.65,0.44,0.92c1.39,3.82,2.78,7.63,4.16,11.45c0.54,1.48,1.06,2.97,1.58,4.46c0.29,0.85,0.3,1.72,0.02,2.56
					c-0.51,1.49-0.98,3.01-1.64,4.43c-2.09,4.51-4.23,8.99-6.4,13.46c-1.2,2.48-2.49,4.93-3.76,7.37c-0.35,0.66-0.77,1.28-1.21,1.9
					c-0.73,1.02-1.71,1.73-2.87,2.21c-1.96,0.8-4.01,1.21-6.09,1.42c-4.16,0.41-8.33,0.7-12.5,1.03
					C175.77,278.97,175.62,278.93,175.33,278.91z"/>
				<path class="st19" d="M293.1,311.58c0-0.93-0.04-1.83,0.01-2.72c0.19-3.66,0.39-7.33,1.11-10.94c0.1-0.5,0.25-0.99,0.39-1.49
					c0.36-1.27,1.11-2.23,2.24-2.93c2.64-1.65,5.31-3.27,7.89-5.02c2.9-1.96,5.97-2.69,9.43-1.96c3.43,0.72,6.9,1.27,10.35,1.91
					c0.54,0.1,1.06,0.27,1.73,0.45c-0.22,0.96-0.37,1.84-0.62,2.7c-1.14,3.95-3.39,7.17-6.48,9.84c-3.42,2.96-7.38,4.95-11.6,6.51
					c-4.53,1.67-9.2,2.8-13.94,3.65C293.46,311.6,293.3,311.58,293.1,311.58z"/>
				<path class="st19" d="M211.57,314.47c-1.34-0.18-2.42-0.31-3.51-0.47c-5.23-0.78-10.46-1.5-15.67-2.39
					c-3.87-0.66-7.59-1.82-10.94-3.96c-1.71-1.09-3.25-2.37-4.52-3.95c-0.29-0.36-0.55-0.76-0.87-1.2c0.28-0.14,0.46-0.28,0.67-0.34
					c5.99-1.56,12.02-2.96,18.12-3.99c0.81-0.14,1.56-0.01,2.27,0.43c2.75,1.71,5.49,3.42,8.25,5.1c1.75,1.06,3.01,2.53,3.76,4.43
					C209.95,310.17,210.72,312.23,211.57,314.47z"/>
			</g>
		</g>
		<g>
			<path class="st19" d="M175.47,267.14c-3.42,9.45-4.87,19.21-4.32,29.44c-1.33-0.33-2.58-0.54-3.75-0.95
				c-1.78-0.63-3.56-1.3-5.26-2.12c-8.25-3.95-15.44-9.36-21.74-15.97c-1.99-2.09-3.89-4.26-5.94-6.29
				c-1.88-1.85-3.82-3.66-5.89-5.3c-2.22-1.76-4.88-2.7-7.63-3.38c-2.91-0.72-5.84-1.37-8.69-2.27c-3.16-1-6.16-2.45-9.04-4.09
				c-6.54-3.72-12.25-8.4-16.44-14.72c-4.64-7-7.05-14.69-6.73-23.14c0.16-4.21,1.07-8.28,2.49-12.25
				c2.89-8.05,7.3-15.14,13.47-21.07c7.26-6.98,15.96-11.01,25.95-12.34c7.73-1.03,15.16,0.02,22.15,3.39
				c11.4,5.49,18.25,14.53,20.26,27.07c0.69,4.3,0.7,8.64,0.53,12.99c-0.27,7.11-0.99,14.17-1.68,21.24
				c-0.22,2.28-0.37,4.56-0.47,6.85c-0.13,3.01,0.16,5.99,0.98,8.91c1.5,5.4,4.82,9.42,9.4,12.49
				C173.84,266.13,174.61,266.6,175.47,267.14z M132.93,219.14c-0.04-2.76-0.63-4.83-2.24-6.53c-1.89-2-4.33-2.43-6.77-1.14
				c-1.43,0.76-2.53,1.88-3.38,3.24c-1.84,2.96-2.3,6.17-1.56,9.55c0.43,1.97,1.27,3.73,2.84,5.07c1.44,1.22,3.06,1.47,4.73,0.64
				c0.9-0.45,1.81-1.03,2.49-1.76C131.48,225.52,132.76,222.31,132.93,219.14z M105.14,212.71c0.02-2.58-0.28-4.02-0.98-5.38
				c-1.48-2.83-4.83-3.66-7.45-1.84c-1.23,0.85-2.15,1.97-2.69,3.37c-1.07,2.76-1.34,5.58-0.52,8.45c0.35,1.22,0.85,2.38,1.69,3.35
				c1.44,1.68,3.48,2.08,5.44,1.06c1.23-0.64,2.13-1.61,2.81-2.79C104.65,216.83,105.1,214.54,105.14,212.71z M97.97,239.39
				c0.09,2.48,0.73,4.52,2.26,6.2c1.8,1.97,4.03,2.87,6.71,2.28c3.03-0.66,4.98-2.75,6.61-5.19c0.4-0.59,0.21-1.29-0.29-1.71
				c-0.52-0.43-1.28-0.42-1.82,0.12c-0.45,0.44-0.81,0.97-1.22,1.45c-0.87,1.04-1.85,1.94-3.15,2.42c-1.84,0.67-3.65,0.19-4.89-1.33
				c-0.91-1.11-1.34-2.39-1.39-3.82c-0.02-0.5-0.06-1.03-0.21-1.5c-0.19-0.58-0.67-0.87-1.29-0.84c-0.56,0.03-0.98,0.34-1.14,0.88
				C98.02,238.76,98,239.2,97.97,239.39z"/>
			<path class="st19" d="M198.74,315.48c4.19,0.6,8.44,1.2,12.77,1.82c0,0.29,0.02,0.52,0,0.74c-0.53,4.2-1.22,8.37-2.85,12.3
				c-0.74,1.78-1.64,3.5-2.62,5.16c-1.78,3.01-4.6,4.21-7.99,4.16c-2.51-0.04-4.92-0.63-7.24-1.61c-0.36-0.15-0.7-0.35-1.05-0.54
				c-3.41-1.83-3.92-4.95-2.84-7.74c0.5-1.3,1.23-2.58,2.1-3.67c1.11-1.37,2.46-2.55,3.74-3.79c1.02-0.99,2.15-1.88,3.08-2.95
				C196.85,318.18,197.72,316.86,198.74,315.48z"/>
			<path class="st19" d="M231.97,318.49c4.6-0.06,9.13-0.12,13.7-0.18c0.06,0.23,0.15,0.41,0.16,0.6
				c0.09,5.02-0.06,10.03-1.16,14.96c-0.46,2.06-1.25,3.99-2.34,5.79c-0.71,1.17-1.62,2.17-2.87,2.74
				c-3.49,1.6-7.07,1.91-10.68,0.45c-3.62-1.46-5.16-4.59-4.07-8.35c0.45-1.54,1.23-2.98,1.9-4.44c0.23-0.5,0.58-0.94,0.89-1.4
				C230.44,324.37,230.79,323.59,231.97,318.49z"/>
			<path class="st19" d="M296.4,314.02c3.93-1.07,7.73-2.1,11.65-3.16c0.06,0.29,0.16,0.66,0.21,1.03
				c0.77,5.24,1.38,10.49,1.29,15.79c-0.04,2.1-0.35,4.17-1.09,6.15c-1.61,4.3-4.82,6.91-9.14,8.01c-4.36,1.11-8.06-1.94-7.94-6.44
				c0.04-1.55,0.39-3.13,0.82-4.64c0.48-1.7,1.12-3.37,1.85-4.99c1.6-3.55,2.57-7.2,2.27-11.13c-0.01-0.16,0-0.32,0.01-0.47
				C296.34,314.1,296.39,314.03,296.4,314.02z"/>
			<path class="st19" d="M263.64,317.82c4.74-0.4,9.37-0.8,14.15-1.21c0.09,0.59,0.2,1.15,0.25,1.73c0.23,2.99,0.55,5.97,0.63,8.96
				c0.08,2.92-0.21,5.82-1.02,8.66c-0.89,3.14-2.9,5.16-5.92,6.28c-1.83,0.68-3.71,1.04-5.68,0.93c-3.11-0.17-4.93-2.02-4.77-5.11
				c0.09-1.76,0.43-3.52,0.78-5.25c0.96-4.73,1.61-9.48,1.53-14.32C263.59,318.29,263.62,318.1,263.64,317.82z"/>
			<path class="st19" d="M319.34,304.95c5.8-5.43,5.54-4.96,8.87-11.91c4.19,0.47,8.41,0.49,12.63,0.54
				c0.98,0.01,1.98,0.08,2.93,0.28c1.71,0.36,2.27,1.34,1.86,3.05c-0.35,1.44-1.09,2.72-2.04,3.84c-3.43,4.04-7.82,6.16-13.11,6.36
				c-3.06,0.12-6.08-0.14-8.98-1.19C320.77,305.66,320.09,305.29,319.34,304.95z"/>
		</g>
	</g>
	<g>
		<g>
			<path class="st109" d="M178.58,99.16c1.34,2.09,1.77,4.46,2.32,6.81c0.4,1.73,0.83,3.46,1.39,5.14c1.24,3.73,3.64,6.52,7.17,8.27
				c2.02,1,4.09,1.89,6.08,2.92c1.85,0.96,3.68,1.99,5.45,3.1c1.45,0.9,2.66,2.1,3.7,3.47c2.28,3.02,2.79,6.32,1.4,9.83
				c-0.61,1.53-1.48,2.96-2.25,4.43c-0.88,1.68-1.85,3.31-2.65,5.02c-1.32,2.82-1.49,5.77-0.72,8.79c0.5,1.95,1.07,3.89,1.41,5.87
				c0.5,2.93,0.13,5.76-1.56,8.3c-1.43,2.16-3.39,3.53-6.04,3.67c-2.21,0.12-4.03-0.67-5.18-2.67c-1.14-1.99-1.15-3.98,0.12-5.92
				c0.11-0.16,0.22-0.33,0.36-0.47c0.54-0.57,1.24-0.69,1.81-0.31c0.58,0.38,0.75,1.05,0.44,1.78c-0.09,0.22-0.23,0.41-0.35,0.62
				c-0.65,1.07-0.55,2.12,0.14,3.11c0.68,0.98,1.7,1.26,2.82,1.1c1.4-0.19,2.5-0.94,3.33-2.07c1.27-1.74,1.77-3.71,1.5-5.82
				c-0.19-1.52-0.62-3.01-0.93-4.51c-0.35-1.7-0.82-3.38-1.02-5.1c-0.31-2.73,0.31-5.36,1.49-7.81c0.94-1.95,2.08-3.81,3.09-5.73
				c0.66-1.26,1.32-2.52,1.82-3.84c0.79-2.1,0.41-4.12-0.8-5.99c-0.85-1.31-1.92-2.44-3.23-3.26c-1.8-1.14-3.66-2.18-5.54-3.17
				c-1.6-0.85-3.27-1.58-4.92-2.33c-5.2-2.34-8.49-6.3-10-11.76c-0.51-1.86-0.94-3.75-1.37-5.63c-1.05-4.65-3.88-7.22-8.62-7.79
				c-0.74-0.09-1.47-0.16-2.48-0.26c0.32,0.27,0.41,0.4,0.53,0.46c3.35,1.61,5.25,4.36,6.02,7.9c0.44,2,0.62,4.06,0.99,6.07
				c0.35,1.9,0.7,3.81,1.2,5.67c0.78,2.9,2.36,5.33,4.66,7.27c1.02,0.87,2.11,1.66,3.14,2.52c1.69,1.42,3.4,2.82,5.03,4.32
				c1.25,1.15,2.28,2.52,3.08,4.03c2,3.75,2.11,7.53,0.18,11.35c-1.06,2.09-2.45,3.96-3.95,5.75c-1.83,2.17-3.72,4.3-5.55,6.48
				c-1.91,2.28-3.53,4.75-4.63,7.54c-1.03,2.63-1.49,5.35-0.78,8.12c1.17,4.55,4.16,7.36,8.69,8.43c2.23,0.53,4.43,0.06,6.39-1.1
				c1.21-0.72,2.29-1.67,3.43-2.51c0.32-0.23,0.61-0.52,0.95-0.7c0.54-0.28,1.08-0.19,1.53,0.25c0.42,0.4,0.48,1.1,0.17,1.64
				c-0.08,0.14-0.18,0.26-0.29,0.37c-2.85,2.77-6.05,4.87-10.18,4.95c-1.28,0.02-2.62-0.14-3.85-0.51
				c-6.62-2.01-10.73-8.58-9.81-15.44c0.45-3.32,1.68-6.34,3.55-9.07c1.49-2.18,3.19-4.22,4.85-6.27c1.56-1.93,3.25-3.77,4.78-5.73
				c0.89-1.15,1.65-2.41,2.32-3.7c1.45-2.81,1.34-5.67-0.19-8.39c-0.71-1.26-1.62-2.45-2.63-3.48c-1.35-1.37-2.89-2.57-4.37-3.81
				c-0.69-0.58-1.43-1.12-2.16-1.66c-4.26-3.12-6.76-7.33-7.69-12.49c-0.45-2.48-0.78-4.99-1.2-7.48c-0.18-1.05-0.38-2.11-0.73-3.11
				c-1.44-4.14-5.75-6.39-10-5.29c-0.56,0.15-1.16,0.2-1.74,0.22c-0.56,0.02-1-0.27-1.22-0.79c-0.23-0.56-0.12-1.09,0.29-1.54
				c0.13-0.14,0.27-0.3,0.42-0.41c5.4-4.02,11.24-5.44,17.68-2.82c2.11,0.86,3.99,2.13,5.5,3.83c1.62,1.83,3.13,3.76,4.6,5.71
				c1.33,1.77,2.5,3.65,3.8,5.43c1.7,2.32,3.75,4.28,6.28,5.68c1.72,0.96,3.54,1.56,5.56,1.1c1.96-0.44,3.32-1.62,4.13-3.41
				c0.57-1.25,0.39-2.49-0.45-3.57c-0.8-1.04-1.91-1.16-3.1-0.91c-0.46,0.1-0.92,0.24-1.38,0.32c-0.9,0.15-1.5-0.17-1.7-0.87
				c-0.21-0.73,0.1-1.39,0.91-1.7c1.46-0.55,2.98-0.82,4.53-0.44c3.28,0.79,5.11,4.56,3.9,7.93c-1.22,3.39-4.7,5.66-8.43,5.55
				c-2.12-0.07-4.01-0.78-5.8-1.86c-2.37-1.42-4.38-3.24-6.06-5.42c-1.23-1.59-2.33-3.28-3.52-4.91c-1.35-1.85-2.69-3.7-4.1-5.51
				C179.83,100.25,179.17,99.73,178.58,99.16z"/>
			<path class="st109" d="M156.15,180.95c-11.56-10.43-24.89-13.31-39.88-10.1c0.15-0.37,0.23-0.65,0.37-0.9
				c2.6-4.92,5.23-9.83,7.81-14.76c0.37-0.7,0.79-1.02,1.57-0.91c0.35,0.05,0.71,0.02,1.06-0.03c5.32-0.62,10.45,0.44,15.54,1.83
				c3.4,0.93,6.69,2.15,9.72,3.98c1.56,0.95,2.98,2.07,4.28,3.35c0.4,0.39,0.57,0.8,0.54,1.36c-0.32,5.2-0.62,10.4-0.92,15.6
				C156.22,180.52,156.18,180.67,156.15,180.95z"/>
			<path class="st14" d="M157.34,160.15c-1.23-0.85-2.31-1.65-3.44-2.36c-2.69-1.7-5.62-2.86-8.64-3.81
				c-4.3-1.36-8.69-2.34-13.2-2.61c-1.45-0.09-2.92,0.03-4.38,0.05c-0.3,0-0.61,0-1.06,0c0.22-0.45,0.37-0.8,0.56-1.13
				c2.68-4.74,5.37-9.47,8.03-14.23c0.35-0.63,0.78-1.01,1.48-1.21c1.7-0.49,3.42-0.6,5.16-0.47c5.52,0.41,10.39,2.49,14.71,5.9
				c1.9,1.5,1.91,1.53,1.78,3.95c-0.28,5.12-0.59,10.24-0.89,15.36C157.44,159.75,157.39,159.89,157.34,160.15z"/>
			<path class="st109" d="M158.98,120.77c-0.09,5.75-0.18,11.5-0.28,17.55c-0.53-0.36-0.84-0.56-1.13-0.77
				c-3.65-2.65-7.62-4.61-12.08-5.44c-2.29-0.43-4.6-0.7-6.94-0.4c-0.19,0.02-0.39,0-0.69,0c0.12-0.29,0.18-0.54,0.31-0.75
				c2.4-4.03,4.81-8.06,7.2-12.1c0.27-0.46,0.57-0.83,1.17-0.86C150.9,117.79,154.98,118.74,158.98,120.77z"/>
			<path class="st14" d="M147.9,115.06c0.94-2.39,8.23-13.22,9.43-13.96c0.54,0.81,0.73,1.74,0.82,2.66
				c0.25,2.55,0.47,5.11,0.63,7.67c0.1,1.61,0.08,3.24,0.11,4.86c0.01,0.38,0,0.77,0,1.19c-1.92-0.58-3.69-1.23-5.53-1.63
				C151.58,115.45,149.73,115.31,147.9,115.06z"/>
		</g>
		<g>
			<path class="st14" d="M325,140.82c0.95,1.4,1.99,2.58,3.15,3.65c0.49,0.45,1,0.9,1.42,1.43c1.07,1.35,0.68,2.67-0.97,3.07
				c-3.03,0.73-6.07,1.41-9.13,2.01c-1.74,0.34-2.72-0.82-2.27-2.54c0.39-1.49,0.81-2.97,1.21-4.45c0.08-0.29,0.1-0.6,0.15-0.95
				c-0.18-0.02-0.29-0.06-0.39-0.03c-3.59,1.24-7.18,1.09-10.85,0.27c-9.16-2.06-15.52-7.45-19.15-16.04
				c-1.78-4.21-2.01-8.65-1.46-13.15c0.33-2.68,1-5.27,2.04-7.76c3.47-8.36,9.49-14.11,18.08-16.89c6.65-2.15,13.27-1.3,19.68,1.3
				c3.62,1.47,6.83,3.61,9.52,6.48c3.27,3.47,5.05,7.64,5.51,12.31c0.94,9.54-1.78,17.94-8.19,25.1c-2.13,2.38-4.77,4.12-7.5,5.72
				C325.61,140.49,325.37,140.62,325,140.82z"/>
			<path class="st109" d="M337.66,289.19c1.3-1.01,2.65-1.73,4.13-2.19c1.07-0.33,2.15-0.52,3.27-0.35c1.81,0.28,2.69,1.8,2.04,3.5
				c-0.38,0.99-1.05,1.76-1.88,2.39c-1.48,1.13-3.17,1.73-5.01,1.97c-0.8,0.1-1.55,0.13-2.22,0.83c-0.83,0.86-1.69,0.68-2.5-0.32
				c-0.38-0.48-0.82-0.58-1.36-0.45c-1.14,0.27-1.93,1.02-2.22,2.1c-0.37,1.4-0.67,2.85-0.75,4.29c-0.22,4.04,0.74,7.91,2,11.72
				c0.67,2.02,1.42,4.03,1.96,6.08c1.03,3.88,0.98,7.82,0.19,11.74c-0.46,2.32-1.04,4.62-1.59,6.92c-0.2,0.85-0.8,1.27-1.53,1.16
				c-0.71-0.1-1.23-0.71-1.14-1.55c0.08-0.78,0.28-1.55,0.48-2.31c0.81-3.06,1.46-6.14,1.55-9.32c0.08-2.92-0.45-5.72-1.37-8.49
				c-0.91-2.73-1.84-5.46-2.53-8.25c-0.88-3.54-1.2-7.15-0.49-10.8c0.42-2.13,1.2-4,3.14-5.36c-0.43-0.26-0.77-0.47-1.13-0.68
				c-1.1-0.65-2.1-1.43-2.75-2.55c-0.31-0.54-0.57-1.14-0.68-1.75c-0.31-1.72,0.99-3.13,2.74-3.04c1.06,0.06,1.97,0.54,2.84,1.1
				c0.33,0.21,0.64,0.44,1.08,0.74c0.03-0.28,0.09-0.45,0.07-0.61c-0.71-5.35,0.22-10.54,1.51-15.7c1.51-6.03,3.73-11.81,5.98-17.58
				c2.67-6.85,4.91-13.83,6.34-21.06c0.93-4.7,1.56-9.42,1.29-14.23c-0.22-3.83-1.13-7.48-2.68-10.98c-1.51-3.4-3.31-6.64-5.25-9.81
				c-2.67-4.38-5.38-8.74-8.01-13.15c-2.9-4.86-5.32-9.95-6.89-15.42c-0.98-3.42-1.54-6.93-2.04-10.45
				c-0.11-0.78-0.25-1.56-0.3-2.35c-0.06-0.94,0.41-1.56,1.16-1.65c0.72-0.09,1.37,0.43,1.52,1.34c0.33,1.91,0.61,3.82,0.89,5.73
				c0.91,6.2,2.86,12.07,5.92,17.52c2.93,5.23,6.08,10.35,9.19,15.48c2.43,4.02,4.82,8.07,6.66,12.41
				c2.18,5.16,2.95,10.54,2.59,16.1c-0.63,9.58-3.14,18.73-6.4,27.71c-1.79,4.93-3.7,9.82-5.44,14.78
				c-1.58,4.51-2.77,9.14-3.32,13.91c-0.41,3.52-0.21,7.02,0.66,10.46C337.45,288.87,337.53,288.96,337.66,289.19z M344.2,289.48
				c-1.95,0.13-3.67,0.79-5.01,2.27C341.13,291.62,342.95,291.21,344.2,289.48z M330.29,287.51c0.59,1.27,1.67,1.91,2.91,2.34
				C332.53,288.68,331.6,287.85,330.29,287.51z"/>
		</g>
	</g>
</g>
</svg>
